<svg width="400" height="400" viewBox="0 0 400 400" fill="none" xmlns="http://www.w3.org/2000/svg">
<g clip-path="url(#clip0_1_2)">
<rect width="400" height="400" fill="#1B263B"/>
<path d="M115.8 260.4C112.333 260.4 110.867 259.2 111.4 256.8C114.6 248.267 118.067 239.467 121.8 230.4C125.533 221.333 129.4 212.267 133.4 203.2C137.667 194.133 141.8 185.333 145.8 176.8C149.8 168.267 153.533 160.267 157 152.8C150.6 154.4 144.6 155.867 139 157.2C133.667 158.533 128.733 159.2 124.2 159.2C122.867 158.933 122.333 158.133 122.6 156.8C122.867 155.467 123.8 154.4 125.4 153.6C130.467 153.067 135.933 152 141.8 150.4C147.667 148.8 153.4 146.8 159 144.4C164.867 142 170.467 139.333 175.8 136.4C181.133 133.2 185.8 130 189.8 126.8C191.133 126.267 192.2 126.267 193 126.8C194.067 127.333 194.6 128.267 194.6 129.6C187.933 138.4 181.667 148 175.8 158.4C169.933 168.8 164.467 179.467 159.4 190.4C154.6 201.067 150.333 211.867 146.6 222.8C143.133 233.467 140.2 243.467 137.8 252.8C136.467 254.933 133.533 256.667 129 258C124.733 259.6 120.333 260.4 115.8 260.4ZM257.041 132.8C269.041 132.8 277.707 135.733 283.041 141.6C288.374 147.2 291.041 153.733 291.041 161.2C291.041 168.933 289.307 175.867 285.841 182C282.641 187.867 277.841 193.467 271.441 198.8C265.041 204.133 257.041 209.6 247.441 215.2C238.107 220.8 227.307 227.2 215.041 234.4C220.641 236.267 227.174 237.867 234.641 239.2C242.107 240.533 250.374 241.2 259.441 241.2C265.574 241.2 270.241 240.4 273.441 238.8C276.641 236.933 279.041 234.533 280.641 231.6C281.974 230.533 283.041 230.533 283.841 231.6C284.641 232.4 284.774 233.733 284.241 235.6C279.707 242.533 274.374 248 268.241 252C262.374 256 254.774 258 245.441 258C237.974 258 231.441 257.333 225.841 256C220.241 254.4 215.174 252.933 210.641 251.6C206.374 250.267 202.374 249.467 198.641 249.2C195.174 248.667 191.707 249.467 188.241 251.6C186.107 252.933 184.241 254.133 182.641 255.2C181.041 256.267 179.574 257.2 178.241 258C176.907 258 176.241 257.2 176.241 255.6C176.241 253.733 176.907 252.133 178.241 250.8C189.707 243.333 200.907 236.533 211.841 230.4C222.774 224.267 232.374 218.133 240.641 212C249.174 205.867 255.974 199.333 261.041 192.4C266.107 185.467 268.641 177.333 268.641 168C268.641 161.067 266.507 155.467 262.241 151.2C258.241 146.933 252.641 144.8 245.441 144.8C236.907 144.8 229.707 147.733 223.841 153.6C218.241 159.467 214.507 166.667 212.641 175.2C211.841 176 210.907 176 209.841 175.2C208.774 174.4 208.241 173.333 208.241 172C209.307 167.2 211.174 162.533 213.841 158C216.507 153.2 219.841 148.933 223.841 145.2C228.107 141.467 233.041 138.533 238.641 136.4C244.241 134 250.374 132.8 257.041 132.8Z" fill="#E0E1DD"/>
<path d="M111.4 256.8L102.037 253.289L101.79 253.946L101.638 254.631L111.4 256.8ZM121.8 230.4L112.553 226.593L112.553 226.593L121.8 230.4ZM133.4 203.2L124.352 198.942L124.3 199.052L124.251 199.164L133.4 203.2ZM145.8 176.8L154.855 181.044L145.8 176.8ZM157 152.8L166.07 157.011L174.887 138.02L154.575 143.099L157 152.8ZM139 157.2L136.684 147.472L136.629 147.485L136.575 147.499L139 157.2ZM124.2 159.2L122.239 169.006L123.21 169.2H124.2V159.2ZM122.6 156.8L132.406 158.761L132.406 158.761L122.6 156.8ZM125.4 153.6L124.353 143.655L122.55 143.845L120.928 144.656L125.4 153.6ZM141.8 150.4L139.169 140.752L139.169 140.752L141.8 150.4ZM159 144.4L155.214 135.145L155.137 135.176L155.061 135.209L159 144.4ZM175.8 136.4L180.619 145.162L180.784 145.072L180.945 144.975L175.8 136.4ZM189.8 126.8L186.086 117.515L184.71 118.066L183.553 118.991L189.8 126.8ZM193 126.8L187.453 135.12L187.971 135.466L188.528 135.744L193 126.8ZM194.6 129.6L202.571 135.639L204.6 132.96V129.6H194.6ZM159.4 190.4L150.327 186.195L150.304 186.246L150.281 186.296L159.4 190.4ZM146.6 222.8L137.137 219.569L137.113 219.639L137.09 219.709L146.6 222.8ZM137.8 252.8L146.28 258.1L147.1 256.788L147.485 255.29L137.8 252.8ZM129 258L126.178 248.406L125.829 248.509L125.489 248.637L129 258ZM115.8 250.4C115.462 250.4 115.558 250.366 115.939 250.458C116.306 250.548 117.317 250.848 118.432 251.76C119.675 252.777 120.628 254.219 121.055 255.865C121.442 257.359 121.266 258.503 121.162 258.969L101.638 254.631C100.84 258.224 101.212 263.512 105.768 267.24C109.261 270.098 113.447 270.4 115.8 270.4V250.4ZM120.763 260.311C123.923 251.884 127.351 243.183 131.047 234.207L112.553 226.593C108.782 235.75 105.277 244.649 102.037 253.289L120.763 260.311ZM131.047 234.207C134.748 225.218 138.582 216.228 142.549 207.236L124.251 199.164C120.218 208.305 116.318 217.448 112.553 226.593L131.047 234.207ZM142.448 207.458C146.717 198.387 150.852 189.582 154.855 181.044L136.745 172.556C132.748 181.084 128.616 189.88 124.352 198.942L142.448 207.458ZM154.855 181.044C158.859 172.501 162.598 164.49 166.07 157.011L147.93 148.589C144.469 156.043 140.741 164.032 136.745 172.556L154.855 181.044ZM154.575 143.099C148.206 144.691 142.243 146.148 136.684 147.472L141.316 166.928C146.957 165.585 152.994 164.109 159.425 162.501L154.575 143.099ZM136.575 147.499C131.873 148.674 127.764 149.2 124.2 149.2V169.2C129.702 169.2 135.46 168.393 141.425 166.901L136.575 147.499ZM126.161 149.394C127.006 149.563 129.397 150.268 131.121 152.853C132.844 155.438 132.575 157.916 132.406 158.761L112.794 154.839C112.359 157.017 112.223 160.562 114.479 163.947C116.736 167.332 120.061 168.57 122.239 169.006L126.161 149.394ZM132.406 158.761C132.182 159.883 131.659 160.861 131.026 161.585C130.445 162.248 129.941 162.51 129.872 162.544L120.928 144.656C117.511 146.364 113.846 149.577 112.794 154.839L132.406 158.761ZM126.447 163.545C132.14 162.946 138.141 161.763 144.431 160.048L139.169 140.752C133.725 142.237 128.794 143.188 124.353 143.655L126.447 163.545ZM144.431 160.048C150.745 158.326 156.915 156.173 162.939 153.591L155.061 135.209C149.885 137.427 144.589 139.274 139.169 140.752L144.431 160.048ZM162.786 153.655C168.992 151.117 174.938 148.287 180.619 145.162L170.981 127.638C165.996 130.38 160.741 132.883 155.214 135.145L162.786 153.655ZM180.945 144.975C186.584 141.591 191.633 138.14 196.047 134.609L183.553 118.991C179.967 121.86 175.682 124.809 170.655 127.825L180.945 144.975ZM193.514 136.085C193.384 136.137 192.696 136.4 191.6 136.4C190.383 136.4 188.873 136.067 187.453 135.12L198.547 118.48C193.837 115.34 188.885 116.396 186.086 117.515L193.514 136.085ZM188.528 135.744C187.496 135.228 186.336 134.294 185.518 132.861C184.736 131.494 184.6 130.26 184.6 129.6H204.6C204.6 127.607 204.197 125.239 202.882 122.939C201.531 120.573 199.571 118.905 197.472 117.856L188.528 135.744ZM186.629 123.561C179.67 132.747 173.16 142.727 167.09 153.487L184.51 163.313C190.173 153.273 196.196 144.053 202.571 135.639L186.629 123.561ZM167.09 153.487C161.092 164.12 155.504 175.023 150.327 186.195L168.473 194.605C173.429 183.91 178.775 173.48 184.51 163.313L167.09 153.487ZM150.281 186.296C145.354 197.245 140.972 208.336 137.137 219.569L156.064 226.031C159.695 215.398 163.846 204.889 168.519 194.504L150.281 186.296ZM137.09 219.709C133.569 230.543 130.575 240.745 128.115 250.31L147.485 255.29C149.825 246.188 152.698 236.39 156.11 225.891L137.09 219.709ZM129.32 247.5C129.75 246.813 130.066 246.764 129.513 247.091C128.972 247.41 127.933 247.89 126.178 248.406L131.822 267.594C136.888 266.104 142.911 263.49 146.28 258.1L129.32 247.5ZM125.489 248.637C122.339 249.818 119.128 250.4 115.8 250.4V270.4C121.539 270.4 127.128 269.382 132.511 267.363L125.489 248.637ZM283.041 141.6L275.641 148.327L275.719 148.413L275.799 148.497L283.041 141.6ZM285.841 182L277.135 177.079L277.098 177.145L277.062 177.211L285.841 182ZM271.441 198.8L277.842 206.482L277.842 206.482L271.441 198.8ZM247.441 215.2L242.402 206.562L242.349 206.593L242.296 206.625L247.441 215.2ZM215.041 234.4L209.979 225.776L190.987 236.923L211.878 243.887L215.041 234.4ZM234.641 239.2L236.399 229.356L236.399 229.356L234.641 239.2ZM273.441 238.8L277.913 247.744L278.201 247.6L278.479 247.438L273.441 238.8ZM280.641 231.6L274.394 223.791L272.824 225.047L271.862 226.811L280.641 231.6ZM283.841 231.6L275.841 237.6L276.267 238.169L276.77 238.671L283.841 231.6ZM284.241 235.6L292.61 241.072L293.44 239.804L293.856 238.347L284.241 235.6ZM268.241 252L262.778 243.624L262.692 243.68L262.607 243.738L268.241 252ZM225.841 256L223.093 265.615L223.308 265.676L223.524 265.728L225.841 256ZM210.641 251.6L207.658 261.145L207.738 261.17L207.819 261.194L210.641 251.6ZM198.641 249.2L197.12 259.084L197.522 259.146L197.928 259.175L198.641 249.2ZM188.241 251.6L183 243.083L182.97 243.102L182.941 243.12L188.241 251.6ZM182.641 255.2L177.094 246.879L182.641 255.2ZM178.241 258V268H181.01L183.386 266.575L178.241 258ZM178.241 250.8L172.784 242.42L171.908 242.99L171.17 243.729L178.241 250.8ZM211.841 230.4L216.733 239.121L216.733 239.121L211.841 230.4ZM240.641 212L234.804 203.88L234.743 203.924L234.682 203.969L240.641 212ZM261.041 192.4L269.115 198.3L269.115 198.3L261.041 192.4ZM262.241 151.2L254.945 158.039L255.056 158.157L255.17 158.271L262.241 151.2ZM223.841 153.6L216.77 146.529L216.687 146.611L216.607 146.695L223.841 153.6ZM212.641 175.2L219.712 182.271L221.784 180.199L222.41 177.337L212.641 175.2ZM209.841 175.2L215.841 167.2L215.841 167.2L209.841 175.2ZM208.241 172L198.479 169.831L198.241 170.902V172H208.241ZM213.841 158L222.46 163.07L222.522 162.964L222.582 162.856L213.841 158ZM223.841 145.2L217.256 137.674L217.135 137.78L217.017 137.889L223.841 145.2ZM238.641 136.4L242.201 145.745L242.392 145.672L242.58 145.591L238.641 136.4ZM257.041 142.8C267.669 142.8 272.996 145.417 275.641 148.327L290.44 134.873C282.419 126.05 270.412 122.8 257.041 122.8V142.8ZM275.799 148.497C279.432 152.311 281.041 156.401 281.041 161.2H301.041C301.041 151.066 297.316 142.089 290.282 134.703L275.799 148.497ZM281.041 161.2C281.041 167.382 279.672 172.591 277.135 177.079L294.546 186.921C298.943 179.143 301.041 170.485 301.041 161.2H281.041ZM277.062 177.211C274.593 181.737 270.701 186.399 265.039 191.118L277.842 206.482C284.98 200.534 290.688 193.996 294.62 186.789L277.062 177.211ZM265.039 191.118C259.18 196 251.67 201.156 242.402 206.562L252.479 223.838C262.411 218.044 270.901 212.266 277.842 206.482L265.039 191.118ZM242.296 206.625C232.997 212.204 222.225 218.587 209.979 225.776L220.103 243.024C232.389 235.812 243.218 229.396 252.586 223.775L242.296 206.625ZM211.878 243.887C218.045 245.942 225.067 247.649 232.883 249.044L236.399 229.356C229.281 228.085 223.236 226.591 218.203 224.913L211.878 243.887ZM232.883 249.044C241.029 250.499 249.895 251.2 259.441 251.2V231.2C250.853 231.2 243.186 230.568 236.399 229.356L232.883 249.044ZM259.441 251.2C266.165 251.2 272.664 250.369 277.913 247.744L268.968 229.856C267.817 230.431 264.983 231.2 259.441 231.2V251.2ZM278.479 247.438C283.077 244.756 286.854 241.092 289.42 236.389L271.862 226.811C271.227 227.975 270.204 229.111 268.402 230.162L278.479 247.438ZM286.888 239.409C286.775 239.499 285.188 240.8 282.441 240.8C279.045 240.8 276.805 238.886 275.841 237.6L291.841 225.6C290.076 223.247 286.903 220.8 282.441 220.8C278.627 220.8 275.84 222.635 274.394 223.791L286.888 239.409ZM276.77 238.671C275.248 237.15 274.709 235.383 274.59 234.195C274.488 233.174 274.688 232.635 274.625 232.853L293.856 238.347C294.65 235.567 295.737 229.354 290.912 224.529L276.77 238.671ZM275.871 230.128C271.996 236.054 267.609 240.473 262.778 243.624L273.703 260.376C281.139 255.527 287.419 249.012 292.61 241.072L275.871 230.128ZM262.607 243.738C258.851 246.299 253.388 248 245.441 248V268C256.16 268 265.897 265.701 273.874 260.262L262.607 243.738ZM245.441 248C238.537 248 232.813 247.38 228.157 246.272L223.524 265.728C230.069 267.286 237.411 268 245.441 268V248ZM228.588 246.385C223.007 244.79 217.966 243.331 213.462 242.006L207.819 261.194C212.382 262.536 217.474 264.01 223.093 265.615L228.588 246.385ZM213.623 242.055C208.757 240.534 203.989 239.557 199.353 239.225L197.928 259.175C200.759 259.377 203.991 259.999 207.658 261.145L213.623 242.055ZM200.161 239.316C193.981 238.365 188.144 239.918 183 243.083L193.482 260.117C195.27 259.016 196.367 258.968 197.12 259.084L200.161 239.316ZM182.941 243.12C180.748 244.49 178.796 245.745 177.094 246.879L188.188 263.521C189.686 262.522 191.467 261.376 193.541 260.08L182.941 243.12ZM177.094 246.879C175.596 247.878 174.266 248.723 173.096 249.425L183.386 266.575C184.882 265.677 186.485 264.656 188.188 263.521L177.094 246.879ZM178.241 248C179.643 248 182.348 248.508 184.423 250.998C186.207 253.139 186.241 255.258 186.241 255.6H166.241C166.241 257.542 166.608 260.861 169.058 263.802C171.8 267.092 175.505 268 178.241 268V248ZM186.241 255.6C186.241 255.884 186.184 256.336 185.971 256.846C185.76 257.354 185.487 257.696 185.312 257.871L171.17 243.729C167.982 246.916 166.241 251.051 166.241 255.6H186.241ZM183.697 259.18C194.996 251.823 206.008 245.138 216.733 239.121L206.948 221.679C195.807 227.929 184.418 234.844 172.784 242.42L183.697 259.18ZM216.733 239.121C227.96 232.824 237.928 226.464 246.599 220.031L234.682 203.969C226.82 209.803 217.588 215.71 206.948 221.679L216.733 239.121ZM246.477 220.12C255.684 213.503 263.303 206.253 269.115 198.3L252.967 186.5C248.645 192.413 242.664 198.231 234.804 203.88L246.477 220.12ZM269.115 198.3C275.543 189.503 278.641 179.26 278.641 168H258.641C258.641 175.407 256.672 181.43 252.967 186.5L269.115 198.3ZM278.641 168C278.641 158.843 275.737 150.554 269.312 144.129L255.17 158.271C257.278 160.379 258.641 163.29 258.641 168H278.641ZM269.536 144.361C263.223 137.627 254.72 134.8 245.441 134.8V154.8C250.562 154.8 253.258 156.24 254.945 158.039L269.536 144.361ZM245.441 134.8C234.34 134.8 224.571 138.728 216.77 146.529L230.912 160.671C234.844 156.739 239.475 154.8 245.441 154.8V134.8ZM216.607 146.695C209.643 153.991 205.099 162.881 202.872 173.063L222.41 177.337C223.916 170.452 226.838 164.943 231.074 160.505L216.607 146.695ZM205.57 168.129C206.62 167.078 208.61 165.8 211.341 165.8C213.79 165.8 215.361 166.841 215.841 167.2L203.841 183.2C205.386 184.359 207.958 185.8 211.341 185.8C215.005 185.8 217.861 184.122 219.712 182.271L205.57 168.129ZM215.841 167.2C216.401 167.62 217.079 168.316 217.585 169.328C218.091 170.34 218.241 171.299 218.241 172H198.241C198.241 176.481 200.256 180.511 203.841 183.2L215.841 167.2ZM218.002 174.169C218.827 170.459 220.287 166.765 222.46 163.07L205.221 152.93C202.061 158.302 199.788 163.941 198.479 169.831L218.002 174.169ZM222.582 162.856C224.743 158.966 227.43 155.528 230.664 152.511L217.017 137.889C212.251 142.338 208.271 147.434 205.099 153.144L222.582 162.856ZM230.426 152.726C233.75 149.817 237.645 147.48 242.201 145.745L235.081 127.055C228.436 129.586 222.465 133.116 217.256 137.674L230.426 152.726ZM242.58 145.591C246.822 143.773 251.6 142.8 257.041 142.8V122.8C249.148 122.8 241.659 124.227 234.701 127.209L242.58 145.591Z" fill="#E0E1DD"/>
</g>
<defs>
<clipPath id="clip0_1_2">
<rect width="400" height="400" fill="white"/>
</clipPath>
</defs>
</svg>
